# xmcd
#
# Track frame offsets: 
#        150
#        19743
#        34033
#        53026
#        72972
#        94550
#        106940
#        130597
#        149477
#        165709
#        185765
#        204437
#        228961
#        252542
#        270961
#        290078
#        307513
#        327117
#
# Disc length: 4599 seconds
#
# Revision: 0
# Processed by: cddbd v1.5.1PL0 Copyright (c) Steve Scherf et al.
# Submitted via: ExactAudioCopy v0.95a5
#
DISCID=f511f512
DTITLE=容中尔甲 - 高原红 - 2
DYEAR=2003
DGENRE=Country
TTITLE0=天上拉萨
TTITLE1=故乡恋
TTITLE2=嘿！康巴人
TTITLE3=九寨之恋
TTITLE4=灵魂的故乡
TTITLE5=美丽的姑娘
TTITLE6=梦中的达娃卓玛
TTITLE7=牧人
TTITLE8=献给你
TTITLE9=香格里拉
TTITLE10=心中的歌
TTITLE11=雄鹰在飞翔
TTITLE12=雪域魂
TTITLE13=珠穆朗玛峰
TTITLE14=走进圣地
TTITLE15=仓央加措情歌
TTITLE16=心中的恋人
TTITLE17=敬你一碗青稞酒
EXTD=
EXTT0=
EXTT1=
EXTT2=
EXTT3=
EXTT4=
EXTT5=
EXTT6=
EXTT7=
EXTT8=
EXTT9=
EXTT10=
EXTT11=
EXTT12=
EXTT13=
EXTT14=
EXTT15=
EXTT16=
EXTT17=
PLAYORDER=
